# xmcd
#
# Track frame offsets: 
#        182
#        16480
#        32560
#        43035
#        58845
#        74465
#        86320
#        100587
#        114682
#        130865
#
# Disc length: 1969 seconds
#
# Revision: 2
# Processed by: cddbd v1.5.1PL2 Copyright (c) Steve Scherf et al.
# Submitted via: ExactAudioCopy v0.95b3
#
DISCID=8007af0a
DTITLE=George Strait - Ten Strait Hits
DYEAR=1991
DGENRE=Country
TTITLE0=Famous Last Words Of A Fool
TTITLE1=Baby Blue
TTITLE2=If You Ain't Lovin' (You Ain't Livin')
TTITLE3=Baby's Gotten Good At Goodbye
TTITLE4=What's Going On In Your World
TTITLE5=Ace In The Hole
TTITLE6=Overnight Success
TTITLE7=Love Without End, Amen
TTITLE8=Drinking Champagne
TTITLE9=I've Come To Expect It From You
EXTD=
EXTT0=
EXTT1=
EXTT2=
EXTT3=
EXTT4=
EXTT5=
EXTT6=
EXTT7=
EXTT8=
EXTT9=
PLAYORDER=
